<svg width="48" height="48" viewBox="0 0 48 48" fill="none" xmlns="http://www.w3.org/2000/svg">
<rect width="48" height="48" fill="white"/>
<path d="M4.76884 30.1698H4.78592L6.60893 26.1234H7.56322V32H6.61755V28.0712H6.60047L5.10097 31.2528H4.45361L2.96275 28.0712H2.94566V32H2V26.1234H2.94566L4.76884 30.1698ZM13.927 32H12.9216L12.4104 30.6064H10.187L9.67573 32H8.67036L10.8343 26.1234H11.7715L13.927 32ZM19.5247 27.0552V27.8276H18.5364V27.3995L18.0849 26.963H16.2959L15.8102 27.433V30.6905L16.2959 31.1604H18.0849L18.5364 30.724V30.2958H19.5247V31.0682L18.5791 32H15.7847L14.8221 31.0514V27.0721L15.7847 26.1234H18.5791L19.5247 27.0552ZM21.8375 28.6503H24.5466V26.1234H25.5349V32H24.5466V29.4899H21.8375V32H20.8491V26.1234H21.8375V28.6503ZM28.1881 32H27.1999V26.1234H28.1881V32ZM33.5608 30.3965H33.5776V26.1234H34.5232V32H33.6203L30.809 27.7352H30.7919V32H29.8462V26.1234H30.7493L33.5608 30.3965ZM40.3034 26.9545H37.1342V28.6335H40.0564V29.4562H37.1342V31.1689H40.3034V32H36.1458V26.1234H40.3034V26.9545ZM45.9318 26.9882V27.7352H44.9606V27.2819L44.6284 26.963H42.8562L42.5242 27.2819V28.2557L42.8562 28.5748H45.1225L46 29.4396V31.1186L45.1054 32H42.4133L41.5358 31.1352V30.3965H42.507V30.8415L42.8307 31.1604H44.6881L45.0288 30.8247V29.7417L44.6964 29.4142H42.4302L41.5528 28.558V26.9882L42.4302 26.1234H45.0544L45.9318 26.9882ZM10.4254 29.792H12.1804L11.3029 27.3071H11.2858L10.4254 29.792ZM8.12076 16.8311H6.33175V21.8766H5.34346V16.8311H3.55427V16H8.12076V16.8311ZM10.3032 18.5269H13.0123V16H14.0006V21.8766H13.0123V19.3663H10.3032V21.8766H9.31491V16H10.3032V18.5269ZM16.6539 21.8766H15.6656V16H16.6539V21.8766ZM22.0265 20.2731H22.0434V16H22.9893V21.8766H22.0862L19.2747 17.6118H19.2576V21.8766H18.3119V16H19.215L22.0265 20.2731ZM25.5999 18.5269H26.6647L28.1387 16H29.2378L27.5083 18.9299L29.3826 21.8766H28.2579L26.6647 19.3663H25.5999V21.8766H24.6117V16H25.5999V18.5269ZM31.5179 21.8766H30.5297V16H31.5179V21.8766ZM36.8904 20.2731H36.9075V16H37.8531V21.8766H36.9501L34.1388 17.6118H34.1216V21.8766H33.176V16H34.0791L36.8904 20.2731ZM44.1444 16.9318V17.7042H43.156V17.276L42.7047 16.8394H40.8644L40.3788 17.3095V20.5668L40.8644 21.037H42.7047L43.1817 20.5753V19.509H41.8782V18.6696H44.1444V20.9279L43.1817 21.8766H40.3534L39.3906 20.9279V16.9486L40.3534 16H43.1988L44.1444 16.9318Z" fill="black"/>
</svg>
